<svg xmlns="http://www.w3.org/2000/svg" xmlns:xlink="http://www.w3.org/1999/xlink" width="22" height="13" viewBox="0 0 22 13"><defs><path id="t5iva" d="M1078.84 59.32a11.38 11.38 0 0 0-2.26-2.67l-.02-.03-.02-.02h-.01c-.49-.47-.8-.78-.93-.94-.23-.3-.29-.61-.16-.92.1-.24.44-.74 1.03-1.5l.74-.97c1.32-1.76 1.9-2.88 1.72-3.37l-.07-.1c-.04-.08-.16-.14-.35-.2a1.8 1.8 0 0 0-.74-.03l-3.29.03a.43.43 0 0 0-.23 0l-.15.04-.05.03-.05.03a.5.5 0 0 0-.12.12.78.78 0 0 0-.12.2 18.67 18.67 0 0 1-2 3.8 5.91 5.91 0 0 1-1.03 1.16c-.13.1-.23.14-.3.13a8.38 8.38 0 0 1-.19-.05.76.76 0 0 1-.26-.28c-.06-.12-.1-.27-.13-.44a4.92 4.92 0 0 1-.03-1.02v-.48a28.39 28.39 0 0 1 .05-1.75l.02-.62c0-.23-.02-.4-.04-.53a1.78 1.78 0 0 0-.12-.36.62.62 0 0 0-.24-.28c-.1-.06-.23-.11-.38-.15a7.6 7.6 0 0 0-1.55-.15c-1.41-.01-2.32.08-2.73.28-.16.08-.3.2-.43.34-.14.17-.16.26-.06.27.46.07.78.24.97.5l.07.13a5.3 5.3 0 0 1 .26 1.36 8.9 8.9 0 0 1-.26 2.9c-.07.13-.11.22-.14.25a.2.2 0 0 1-.05.05c-.1.04-.2.06-.31.06-.1 0-.24-.05-.4-.16-.14-.1-.3-.25-.47-.44a5.88 5.88 0 0 1-.55-.78c-.2-.34-.42-.73-.64-1.2l-.18-.32a28.52 28.52 0 0 1-1-2.12.75.75 0 0 0-.27-.36l-.06-.04a1.21 1.21 0 0 0-.45-.17l-3.13.02c-.32 0-.54.08-.65.22l-.05.07a.37.37 0 0 0-.03.18c0 .09.02.19.07.31a37.73 37.73 0 0 0 4.1 7.25 25.3 25.3 0 0 0 1.14 1.38l.28.28a13.75 13.75 0 0 0 1.98 1.41 6.39 6.39 0 0 0 3.18.8h1.31c.27-.03.47-.11.6-.26l.05-.06a1.16 1.16 0 0 0 .13-.53c0-.32.02-.61.07-.88.06-.26.13-.46.2-.6a1.46 1.46 0 0 1 .44-.5.74.74 0 0 1 .09-.03c.18-.07.4 0 .65.17.24.18.48.4.7.67.21.26.47.55.78.88.3.33.57.57.8.73l.23.14c.15.1.35.18.6.25.23.08.45.1.63.06l2.93-.05c.29 0 .51-.04.67-.14.16-.1.26-.2.29-.31a.89.89 0 0 0 0-.4 1.44 1.44 0 0 0-.08-.3z"/></defs><g><g transform="translate(-1057 -48)"><use fill="#fff" xlink:href="#t5iva"/></g></g></svg>