<svg xmlns="http://www.w3.org/2000/svg" xmlns:xlink="http://www.w3.org/1999/xlink" width="20" height="27" viewBox="0 0 20 27"><defs><path id="fr4xa" d="M277.75 949.68c0 .04-.03.07-.06.07H260.3a.07.07 0 0 1-.06-.07v-24.35c0-.04.03-.07.06-.07h12.66v3.51c0 .74.59 1.34 1.32 1.34h3.46v19.57zm-3.53-23.52l2.65 2.68h-2.58a.07.07 0 0 1-.07-.07zm4.78 3.3a.64.64 0 0 0-.18-.44l-4.78-4.83a.62.62 0 0 0-.44-.19H260.3c-.72 0-1.31.6-1.31 1.33v24.34c0 .73.59 1.33 1.31 1.33h17.38c.72 0 1.31-.6 1.31-1.33v-20.2z"/><path id="fr4xb" d="M275.06 933.45h-10.78c-.34 0-.61.3-.61.68 0 .37.27.67.6.67h10.8c.33 0 .6-.3.6-.68 0-.37-.27-.67-.6-.67z"/><path id="fr4xc" d="M275.06 936.83h-10.78c-.34 0-.61.3-.61.68 0 .37.27.67.6.67h10.8c.33 0 .6-.3.6-.68 0-.37-.27-.67-.6-.67z"/><path id="fr4xd" d="M275.06 940.88h-10.78c-.34 0-.61.3-.61.68 0 .37.27.67.6.67h10.8c.33 0 .6-.3.6-.68 0-.37-.27-.67-.6-.67z"/><path id="fr4xe" d="M269.72 944.93h-5.44c-.33 0-.61.3-.61.68 0 .37.28.67.61.67h5.44c.34 0 .62-.3.62-.68 0-.37-.28-.67-.62-.67z"/></defs><g><g transform="translate(-259 -924)"><g><use fill="#fff" xlink:href="#fr4xa"/></g><g><use fill="#fff" xlink:href="#fr4xb"/></g><g><use fill="#fff" xlink:href="#fr4xc"/></g><g><use fill="#fff" xlink:href="#fr4xd"/></g><g><use fill="#fff" xlink:href="#fr4xe"/></g></g></g></svg>