<svg xmlns="http://www.w3.org/2000/svg" xmlns:xlink="http://www.w3.org/1999/xlink" width="25" height="25" viewBox="0 0 25 25"><defs><path id="jwksa" d="M949.5 2516c-6.9 0-12.5 5.62-12.5 12.55 0 6.22 4.5 11.37 10.42 12.37v-9.75h-3.02v-3.5h3.02v-2.6c0-3 1.82-4.63 4.49-4.63 1.27 0 2.37.1 2.69.14v3.14h-1.85c-1.45 0-1.73.69-1.73 1.7v2.24h3.46l-.45 3.5h-3v9.84a12.53 12.53 0 0 0 10.97-12.45c0-6.93-5.6-12.55-12.5-12.55z"/></defs><g><g transform="translate(-937 -2516)"><use fill="#fff" xlink:href="#jwksa"/></g></g></svg>