<svg xmlns="http://www.w3.org/2000/svg" xmlns:xlink="http://www.w3.org/1999/xlink" width="10" height="19" viewBox="0 0 10 19"><defs><path id="d1hma" d="M693.67 2192h-2.41c-2.7 0-4.46 1.8-4.46 4.57v2.11h-2.42c-.21 0-.38.17-.38.38v3.06c0 .2.17.37.38.37h2.42v7.71c0 .21.17.38.38.38h3.16c.21 0 .38-.17.38-.38v-7.7h2.83c.21 0 .38-.18.38-.38v-3.06a.38.38 0 0 0-.38-.38h-2.83v-1.79c0-.86.2-1.3 1.32-1.3h1.63c.2 0 .38-.16.38-.37v-2.84c0-.2-.17-.38-.38-.38z"/></defs><g><g transform="translate(-684 -2192)"><use fill="#161b6e" xlink:href="#d1hma"/></g></g></svg>