<svg xmlns="http://www.w3.org/2000/svg" xmlns:xlink="http://www.w3.org/1999/xlink" width="25" height="25" viewBox="0 0 25 25"><defs><path id="uzvva" d="M1133.45 34.43c-.5 0-.91-.41-.91-.91a.91.91 0 0 1 1.83 0c0 .5-.41.9-.92.9zm-3.98 6.93a3.87 3.87 0 1 1 0-7.73 3.87 3.87 0 0 1 0 7.73zm3.71-9.73h-7.43c-1.19 0-2.15.96-2.15 2.15v7.43c0 1.19.96 2.15 2.15 2.15h7.43c1.19 0 2.15-.96 2.15-2.15v-7.43c0-1.19-.96-2.15-2.15-2.15z"/><path id="uzvvb" d="M1129.47 35.27a2.23 2.23 0 1 0 0 4.47 2.23 2.23 0 0 0 0-4.47z"/><path id="uzvvc" d="M1136.97 41.22c0 2.08-1.7 3.78-3.79 3.78h-7.43a3.79 3.79 0 0 1-3.78-3.78v-7.44c0-2.08 1.7-3.78 3.78-3.78h7.43c2.09 0 3.79 1.7 3.79 3.78zm-7.5-16.22a12.47 12.47 0 1 0 0 24.93 12.47 12.47 0 0 0 0-24.93z"/></defs><g><g transform="translate(-1117 -25)"><g><use fill="#4a4a4a" xlink:href="#uzvva"/></g><g><use fill="#4a4a4a" xlink:href="#uzvvb"/></g><g><use fill="#4a4a4a" xlink:href="#uzvvc"/></g></g></g></svg>