<svg xmlns="http://www.w3.org/2000/svg" xmlns:xlink="http://www.w3.org/1999/xlink" width="35" height="35" viewBox="0 0 35 35"><defs><path id="inuya" d="M550.22 503.87c-.78 0-1.41.63-1.41 1.42V516c0 1.2-.97 2.16-2.16 2.16h-19.66c-1.2 0-2.16-.97-2.16-2.16v-19.66c0-1.2.97-2.16 2.16-2.16h10.72a1.41 1.41 0 0 0 0-2.83H527a5 5 0 0 0-4.99 4.99V516a5 5 0 0 0 4.99 4.99h19.66a5 5 0 0 0 4.99-5V505.3c0-.79-.63-1.42-1.42-1.42z"/><path id="inuyb" d="M555.59 486h-10.73a1.41 1.41 0 1 0 0 2.83h9.31v9.3a1.41 1.41 0 1 0 2.83 0v-10.72c0-.78-.63-1.41-1.41-1.41z"/><path id="inuyc" d="M556.58 486.41a1.41 1.41 0 0 0-2 0l-19.66 19.66a1.41 1.41 0 1 0 2 2l19.66-19.66c.56-.55.56-1.44 0-2z"/></defs><g><g transform="translate(-522 -486)"><use fill="#1249b0" xlink:href="#inuya"/></g><g transform="translate(-522 -486)"><use fill="#1249b0" xlink:href="#inuyb"/></g><g transform="translate(-522 -486)"><use fill="#1249b0" xlink:href="#inuyc"/></g></g></svg>