<svg xmlns="http://www.w3.org/2000/svg" xmlns:xlink="http://www.w3.org/1999/xlink" width="25" height="25" viewBox="0 0 25 25"><defs><path id="av34a" d="M1222 37.5a12.5 12.5 0 1 1-25 0 12.5 12.5 0 0 1 25 0zm-4.15-4.64l-5.16 5.14 5.16 5.13c.1-.2.15-.4.15-.64v-9c0-.22-.06-.44-.15-.63zm-1.33-.86h-14.03c-.23 0-.44.06-.64.15l6.6 6.58a1.5 1.5 0 0 0 2.11 0l6.6-6.58c-.2-.1-.41-.15-.64-.15zm-15.37.86c-.1.2-.15.4-.15.64v9c0 .22.06.44.15.63l5.16-5.13zM1212 38.7l-.73.73c-.97.97-2.56.97-3.53 0l-.73-.73-5.16 5.14c.2.1.41.15.64.15h14.03c.23 0 .44-.06.64-.15z"/></defs><g><g transform="translate(-1197 -25)"><g><use fill="#4a4a4a" xlink:href="#av34a"/></g></g></g></svg>