<svg xmlns="http://www.w3.org/2000/svg" xmlns:xlink="http://www.w3.org/1999/xlink" width="15" height="13" viewBox="0 0 15 13"><defs><path id="t1a5a" d="M725 2196.54c-.55.26-1.14.44-1.77.52a3.27 3.27 0 0 0 1.36-1.82c-.6.38-1.26.65-1.96.8a2.98 2.98 0 0 0-2.25-1.04c-1.7 0-3.07 1.47-3.07 3.28 0 .26.02.51.08.75a8.57 8.57 0 0 1-6.34-3.43 3.43 3.43 0 0 0 .95 4.38c-.5-.02-.98-.16-1.4-.41v.04a3.24 3.24 0 0 0 2.47 3.22 2.93 2.93 0 0 1-1.39.05 3.11 3.11 0 0 0 2.88 2.28 5.93 5.93 0 0 1-4.56 1.36 8.3 8.3 0 0 0 4.72 1.48c5.66 0 8.75-5 8.75-9.34v-.43a6.39 6.39 0 0 0 1.53-1.7z"/></defs><g><g transform="translate(-710 -2195)"><use fill="#161b6e" xlink:href="#t1a5a"/></g></g></svg>